<svg x="0px" y="0px" viewBox="0 0 130.3 160">
<g>
	<g id="svg_1">
		<path fill="#010101" d="M107.4,84.8c0.2,23.4,20.5,31.2,20.8,31.3c-0.2,0.5-3.2,11.1-10.7,22c-6.4,9.4-13.1,18.8-23.7,19
			C83.4,157.3,80,151,68.2,151c-11.8,0-15.5,5.9-25.3,6.3c-10.2,0.4-17.9-10.2-24.4-19.6C5.2,118.5-5,83.5,8.6,59.8
			c6.8-11.8,18.9-19.2,32-19.4c10-0.2,19.4,6.7,25.5,6.7c6.1,0,17.6-8.3,29.6-7.1c5,0.2,19.2,2,28.3,15.3
			C123.3,55.9,107.2,65.3,107.4,84.8 M87.9,27.4c5.4-6.5,9-15.6,8-24.7C88.1,3,78.7,7.9,73.1,14.4c-5,5.8-9.4,15-8.2,23.9
			C73.6,39,82.5,33.9,87.9,27.4"/>
	</g>
</g>
</svg>
