<svg x="0px" y="0px" viewBox="0 0 81.2 81.2">
<path d="M0,40.6c0,7.5,1.8,14.3,5.5,20.3c3.6,6.3,8.6,11.2,14.8,14.8c6.2,3.6,13,5.4,20.3,5.4c7.4,0,14.2-1.8,20.4-5.4
	c6.3-3.6,11.2-8.6,14.8-14.8c3.6-6.2,5.4-13,5.4-20.4c0-7.4-1.8-14.3-5.4-20.4C72.2,13.9,67.2,9,61,5.4S47.9,0,40.6,0
	c-7.5,0-14.3,1.8-20.3,5.5C14,9.1,9,14,5.4,20.3S0,33.3,0,40.6L0,40.6z M6.8,40.6c0-4.5,0.9-8.9,2.7-13.1s4.2-7.8,7.3-10.9
	c3.1-3.1,6.7-5.5,10.9-7.3s8.5-2.6,13-2.6s8.9,0.9,13.1,2.6s7.8,4.2,10.9,7.3c3,3,5.4,6.7,7.2,10.9c1.8,4.2,2.6,8.6,2.6,13.1
	c0,4.8-1,9.5-3,13.9c-2,4.4-4.8,8.2-8.4,11.4c-3.6,3.2-7.7,5.5-12.3,7V60.9c0-3-1.2-5.3-3.6-6.9c5.9-0.5,10.3-2,13-4.5
	c2.7-2.5,4.1-6.4,4.1-11.8c0-4.2-1.3-7.7-3.8-10.5c0.5-1.5,0.8-3,0.8-4.4c0-2.1-0.5-4-1.4-5.8c-1.9,0-3.6,0.3-5.1,0.9
	c-1.5,0.6-3.3,1.7-5.5,3.2c-2.6-0.6-5.3-0.9-8.1-0.9c-3.2,0-6.2,0.3-8.9,1c-2.1-1.6-3.9-2.6-5.5-3.3c-1.5-0.6-3.3-1-5.2-1
	c-0.9,1.8-1.4,3.7-1.4,5.8c0,1.5,0.2,2.9,0.7,4.4c-2.6,2.8-3.8,6.3-3.8,10.5c0,5.4,1.4,9.3,4.1,11.8c2.7,2.5,7.1,4,13.2,4.5
	c-1.6,1.1-2.7,2.6-3.3,4.7c-1.4,0.5-2.8,0.7-4.3,0.7c-1.1,0-2.1-0.3-2.9-0.8c-0.3-0.1-0.5-0.3-0.7-0.4c-0.2-0.2-0.4-0.3-0.7-0.6
	c-0.2-0.2-0.4-0.4-0.5-0.5c-0.1-0.1-0.3-0.3-0.5-0.7c-0.2-0.3-0.4-0.5-0.4-0.6c-0.1-0.1-0.2-0.3-0.5-0.7s-0.4-0.6-0.4-0.6
	c-1.3-1.7-2.9-2.6-4.7-2.6c-1,0-1.5,0.2-1.5,0.6c0,0.2,0.2,0.5,0.7,0.8c0.9,0.8,1.4,1.2,1.4,1.3c0.7,0.5,1.1,0.9,1.1,1
	c0.8,1,1.4,2.1,1.9,3.3c1.6,3.5,4.3,5.3,8.1,5.3c0.6,0,1.8-0.1,3.6-0.4v9c-4.6-1.4-8.7-3.8-12.3-7c-3.6-3.2-6.4-7-8.4-11.4
	C7.8,50.1,6.8,45.5,6.8,40.6L6.8,40.6z"/>
</svg>
