<?xml version="1.0" encoding="utf-8"?>
<!-- Generator: Adobe Illustrator 19.1.0, SVG Export Plug-In . SVG Version: 6.00 Build 0)  -->
<!DOCTYPE svg PUBLIC "-//W3C//DTD SVG 1.1//EN" "http://www.w3.org/Graphics/SVG/1.1/DTD/svg11.dtd">
<svg version="1.1" id="Calque_1" xmlns="http://www.w3.org/2000/svg" xmlns:xlink="http://www.w3.org/1999/xlink" x="0px" y="0px"
	 viewBox="0 0 78.5 28.5" enable-background="new 0 0 78.5 28.5" xml:space="preserve" width="78" height="28">
<linearGradient id="SVGID_1_" gradientUnits="userSpaceOnUse" x1="39.25" y1="-1.627086e-09" x2="39.25" y2="28.5">
	<stop  offset="0" style="stop-color:#0090FF"/>
	<stop  offset="1" style="stop-color:#0079D7"/>
</linearGradient>
<path fill-rule="evenodd" clip-rule="evenodd" fill="url(#SVGID_1_)" d="M3,0h72.5c1.7,0,3,1.3,3,3v22.5c0,1.7-1.3,3-3,3H3
	c-1.7,0-3-1.3-3-3V3C0,1.3,1.3,0,3,0z"/>
<polygon fill="#FFFFFF" points="63.6,14.2 57.4,8 56.4,9 61.6,14.2 56.4,19.5 57.4,20.5 62.6,15.2 62.6,15.2 "/>
<g>
	<path fill="#FFFFFF" d="M18.7,9.7c1.5,0,2.6,0.4,3.4,1.1c0.8,0.7,1.2,1.9,1.2,3.4c0,0.8-0.1,1.5-0.3,2.1c-0.2,0.6-0.5,1.1-0.8,1.5
		c-0.4,0.4-0.8,0.7-1.4,1c-0.6,0.2-1.3,0.3-2,0.3h-3.2V9.7H18.7z M18.8,18.1c0.1,0,0.3,0,0.5,0c0.2,0,0.4-0.1,0.7-0.2
		c0.2-0.1,0.5-0.2,0.7-0.4c0.2-0.2,0.4-0.4,0.6-0.6c0.2-0.3,0.3-0.6,0.5-1c0.1-0.4,0.2-0.9,0.2-1.5c0-0.6-0.1-1.1-0.2-1.5
		c-0.1-0.4-0.3-0.8-0.5-1.1c-0.3-0.3-0.6-0.6-1-0.7s-0.9-0.2-1.5-0.2h-2.1v7.3H18.8z"/>
	<path fill="#FFFFFF" d="M29.4,18.7c-0.5,0.4-1.2,0.6-1.9,0.6c-0.5,0-1-0.1-1.4-0.3s-0.7-0.4-1-0.7c-0.3-0.3-0.5-0.7-0.6-1.1
		s-0.2-0.9-0.2-1.4c0-0.5,0.1-1,0.2-1.4c0.2-0.4,0.4-0.8,0.7-1.1c0.3-0.3,0.6-0.6,1-0.7c0.4-0.2,0.8-0.3,1.3-0.3
		c0.6,0,1.1,0.1,1.5,0.4c0.4,0.3,0.7,0.6,1,1c0.2,0.4,0.4,0.8,0.5,1.3c0.1,0.5,0.1,0.9,0.1,1.3h-5.1c0,0.3,0,0.6,0.1,0.9
		c0.1,0.3,0.2,0.5,0.4,0.7c0.2,0.2,0.4,0.4,0.7,0.5c0.3,0.1,0.6,0.2,1,0.2c0.5,0,0.9-0.1,1.2-0.3s0.5-0.6,0.6-1h1.1
		C30.2,17.7,29.9,18.3,29.4,18.7z M29.1,14.3c-0.1-0.2-0.2-0.4-0.4-0.6c-0.2-0.2-0.4-0.3-0.6-0.4c-0.2-0.1-0.5-0.2-0.8-0.2
		c-0.3,0-0.6,0.1-0.8,0.2s-0.4,0.2-0.6,0.4c-0.2,0.2-0.3,0.4-0.4,0.6c-0.1,0.2-0.2,0.5-0.2,0.7h3.9C29.3,14.8,29.2,14.6,29.1,14.3z"
		/>
	<path fill="#FFFFFF" d="M32.7,12.3v1h0c0.5-0.8,1.2-1.2,2.2-1.2c0.4,0,0.8,0.1,1.2,0.3c0.3,0.2,0.6,0.5,0.7,0.9
		c0.2-0.4,0.5-0.7,0.9-0.9s0.8-0.3,1.2-0.3c0.3,0,0.7,0,0.9,0.1c0.3,0.1,0.5,0.2,0.7,0.4c0.2,0.2,0.4,0.4,0.5,0.6
		c0.1,0.3,0.2,0.6,0.2,0.9v5h-1.1v-4.5c0-0.2,0-0.4-0.1-0.6c0-0.2-0.1-0.3-0.2-0.5c-0.1-0.1-0.2-0.2-0.4-0.3
		c-0.2-0.1-0.4-0.1-0.7-0.1c-0.6,0-1,0.2-1.3,0.5c-0.3,0.3-0.5,0.7-0.5,1.3v4.3h-1.1v-4.5c0-0.2,0-0.4-0.1-0.6
		c0-0.2-0.1-0.3-0.2-0.5s-0.2-0.2-0.4-0.3c-0.2-0.1-0.4-0.1-0.6-0.1c-0.3,0-0.6,0.1-0.8,0.2c-0.2,0.1-0.4,0.3-0.6,0.5
		c-0.1,0.2-0.3,0.4-0.3,0.6c-0.1,0.2-0.1,0.4-0.1,0.5v4.3h-1.1v-6.8H32.7z"/>
	<path fill="#FFFFFF" d="M42.8,14.3c0.1-0.4,0.4-0.8,0.6-1.1c0.3-0.3,0.6-0.6,1-0.8c0.4-0.2,0.9-0.3,1.4-0.3c0.5,0,1,0.1,1.4,0.3
		c0.4,0.2,0.8,0.4,1,0.8c0.3,0.3,0.5,0.7,0.6,1.1c0.1,0.4,0.2,0.9,0.2,1.4c0,0.5-0.1,1-0.2,1.4c-0.1,0.4-0.4,0.8-0.6,1.1
		c-0.3,0.3-0.6,0.6-1,0.8c-0.4,0.2-0.9,0.3-1.4,0.3c-0.5,0-1-0.1-1.4-0.3c-0.4-0.2-0.8-0.4-1-0.8s-0.5-0.7-0.6-1.1s-0.2-0.9-0.2-1.4
		C42.6,15.2,42.7,14.8,42.8,14.3z M43.9,16.8c0.1,0.3,0.3,0.6,0.5,0.8c0.2,0.2,0.4,0.4,0.7,0.5c0.3,0.1,0.5,0.2,0.8,0.2
		c0.3,0,0.6-0.1,0.8-0.2c0.3-0.1,0.5-0.3,0.7-0.5c0.2-0.2,0.3-0.5,0.5-0.8c0.1-0.3,0.2-0.7,0.2-1.1c0-0.4-0.1-0.8-0.2-1.1
		s-0.3-0.6-0.5-0.8s-0.4-0.4-0.7-0.5c-0.3-0.1-0.5-0.2-0.8-0.2c-0.3,0-0.6,0.1-0.8,0.2c-0.3,0.1-0.5,0.3-0.7,0.5s-0.3,0.5-0.5,0.8
		c-0.1,0.3-0.2,0.7-0.2,1.1C43.8,16.1,43.8,16.5,43.9,16.8z"/>
</g>
</svg>
