<?xml version="1.0" encoding="utf-8"?>
<!DOCTYPE svg PUBLIC "-//W3C//DTD SVG 1.1//EN" "http://www.w3.org/Graphics/SVG/1.1/DTD/svg11.dtd">
<svg version="1.1" id="Calque_1" xmlns="http://www.w3.org/2000/svg" xmlns:xlink="http://www.w3.org/1999/xlink" x="0px" y="0px"
	 viewBox="0 0 513.9 17.3" enable-background="new 0 0 513.9 17.3" xml:space="preserve" width="640" height="22">
<text transform="matrix(1 0 0 1 25.4735 14.4249)" fill="#D65600" font-family="Helvetica, arial, nimbussansl, liberationsans, freesans, clean, sans-serif, 'Segoe UI Emoji', 'Segoe UI Symbol'" font-size="13px">This library is in early Alpha and is subject to breaking change in the coming weeks.</text>
<path fill="#D65600" d="M10.7,14.3v-2c0-0.1,0-0.2-0.1-0.2C10.5,12,10.4,12,10.3,12h-2c-0.1,0-0.2,0-0.2,0.1C8,12.2,8,12.2,8,12.3v2
	c0,0.1,0,0.2,0.1,0.2c0.1,0.1,0.1,0.1,0.2,0.1h2c0.1,0,0.2,0,0.2-0.1C10.6,14.5,10.7,14.4,10.7,14.3z M10.6,10.4l0.2-4.8
	c0-0.1,0-0.1-0.1-0.2c-0.1-0.1-0.2-0.1-0.2-0.1H8.2c-0.1,0-0.2,0-0.2,0.1c-0.1,0-0.1,0.1-0.1,0.2L8,10.4c0,0.1,0,0.1,0.1,0.2
	c0.1,0,0.2,0.1,0.2,0.1h1.9c0.1,0,0.2,0,0.2-0.1C10.6,10.5,10.6,10.5,10.6,10.4z M10.5,0.7l8,14.7c0.2,0.4,0.2,0.9,0,1.3
	c-0.1,0.2-0.3,0.4-0.5,0.5c-0.2,0.1-0.4,0.2-0.7,0.2h-16c-0.2,0-0.5-0.1-0.7-0.2c-0.2-0.1-0.4-0.3-0.5-0.5c-0.3-0.4-0.3-0.9,0-1.3
	l8-14.7c0.1-0.2,0.3-0.4,0.5-0.5S9.1,0,9.3,0S9.8,0.1,10,0.2C10.2,0.3,10.4,0.5,10.5,0.7z"/>
</svg>
