<?xml version="1.0" encoding="utf-8"?>
<!-- Generator: Adobe Illustrator 19.1.0, SVG Export Plug-In . SVG Version: 6.00 Build 0)  -->
<!DOCTYPE svg PUBLIC "-//W3C//DTD SVG 1.1//EN" "http://www.w3.org/Graphics/SVG/1.1/DTD/svg11.dtd">
<svg version="1.1" id="Calque_1" xmlns="http://www.w3.org/2000/svg" xmlns:xlink="http://www.w3.org/1999/xlink" x="0px" y="0px"
	 viewBox="14 386 640 22" style="enable-background:new 14 386 640 22;" xml:space="preserve">
<style type="text/css">
	.st0{fill:#D3AA00;}
	.st1{font-family:Helvetica, arial, nimbussansl, liberationsans, freesans, clean, sans-serif, 'Segoe UI Emoji', 'Segoe UI Symbol';}
	.st2{font-size:13px;}
</style>
<text transform="matrix(1 0 0 1 45.724 404.1924)" class="st0 st1 st2">This library is in Beta. Thank you for reporting any issue in the Issues page.</text>
<path class="st0" d="M27.3,404v-2.5c0-0.1,0-0.2-0.1-0.2c-0.1-0.1-0.2-0.1-0.4-0.1h-2.5c-0.1,0-0.2,0-0.2,0.1
	c-0.1,0.1-0.1,0.1-0.1,0.2v2.5c0,0.1,0,0.2,0.1,0.2c0.1,0.1,0.1,0.1,0.2,0.1h2.5c0.1,0,0.2,0,0.2-0.1
	C27.2,404.3,27.3,404.2,27.3,404z M27.2,399.2l0.2-6c0-0.1,0-0.1-0.1-0.2s-0.2-0.1-0.2-0.1h-2.9c-0.1,0-0.2,0-0.2,0.1
	c-0.1,0-0.1,0.1-0.1,0.2l0.1,6c0,0.1,0,0.1,0.1,0.2c0.1,0,0.2,0.1,0.2,0.1h2.4c0.1,0,0.2,0,0.2-0.1
	C27.2,399.3,27.2,399.3,27.2,399.2z M27.1,387.1l10,18.3c0.2,0.5,0.2,1.1,0,1.6c-0.1,0.2-0.4,0.5-0.6,0.6s-0.5,0.2-0.9,0.2H15.6
	c-0.2,0-0.6-0.1-0.9-0.2c-0.2-0.1-0.5-0.4-0.6-0.6c-0.4-0.5-0.4-1.1,0-1.6l10-18.3c0.1-0.2,0.4-0.5,0.6-0.6c0.2-0.1,0.6-0.2,0.9-0.2
	c0.2,0,0.6,0.1,0.9,0.2C26.7,386.6,27,386.9,27.1,387.1z"/>
</svg>
