<?xml version="1.0" encoding="utf-8"?>
<!-- Generator: Adobe Illustrator 19.1.0, SVG Export Plug-In . SVG Version: 6.00 Build 0)  -->
<!DOCTYPE svg PUBLIC "-//W3C//DTD SVG 1.1//EN" "http://www.w3.org/Graphics/SVG/1.1/DTD/svg11.dtd">
<svg version="1.1" id="Calque_1" xmlns="http://www.w3.org/2000/svg" xmlns:xlink="http://www.w3.org/1999/xlink" x="0px" y="0px"
	 viewBox="138 384 888 28.5" style="enable-background:new 138 384 888 28.5;" xml:space="preserve">
<style type="text/css">
	.st0{fill:#D3AA00;}
	.st1{font-family:Helvetica, arial, nimbussansl, liberationsans, freesans, clean, sans-serif, 'Segoe UI Emoji', 'Segoe UI Symbol';}
	.st2{font-size:13px;}
</style>
<text transform="matrix(1 0 0 1 170.0021 404.3924)" class="st0 st1 st2">This library is in beta. Please report any issues or feature request to the issues page.</text>
<path class="st0" d="M151.6,404.2v-2.5c0-0.1,0-0.2-0.1-0.2c-0.1-0.1-0.2-0.1-0.4-0.1h-2.5c-0.1,0-0.2,0-0.2,0.1
	c-0.1,0.1-0.1,0.1-0.1,0.2v2.5c0,0.1,0,0.2,0.1,0.2c0.1,0.1,0.1,0.1,0.2,0.1h2.5c0.1,0,0.2,0,0.2-0.1
	C151.5,404.5,151.6,404.4,151.6,404.2z M151.5,399.4l0.2-6c0-0.1,0-0.1-0.1-0.2s-0.2-0.1-0.2-0.1h-2.9c-0.1,0-0.2,0-0.2,0.1
	c-0.1,0-0.1,0.1-0.1,0.2l0.1,6c0,0.1,0,0.1,0.1,0.2c0.1,0,0.2,0.1,0.2,0.1h2.4c0.1,0,0.2,0,0.2-0.1
	C151.5,399.5,151.5,399.5,151.5,399.4z M151.4,387.3l10,18.3c0.2,0.5,0.2,1.1,0,1.6c-0.1,0.2-0.4,0.5-0.6,0.6s-0.5,0.2-0.9,0.2h-20
	c-0.2,0-0.6-0.1-0.9-0.2c-0.2-0.1-0.5-0.4-0.6-0.6c-0.4-0.5-0.4-1.1,0-1.6l10-18.3c0.1-0.2,0.4-0.5,0.6-0.6c0.2-0.1,0.6-0.2,0.9-0.2
	c0.2,0,0.6,0.1,0.9,0.2C151,386.8,151.3,387.1,151.4,387.3z"/>
</svg>
